<svg xmlns="http://www.w3.org/2000/svg" width="145" height="40" fill="none"><path fill="#283645" d="M71 18.5a1.3 1.3 0 0 1 1.3-1.2h7c5.1 0 8.5 2.7 8.5 7v.2c0 4.8-4 7.3-8.8 7.3h-5.5v6.8a1.3 1.3 0 0 1-1.2 1.4 1.3 1.3 0 0 1-1.3-1.4v-20Zm8 11c3.8 0 6.2-2 6.2-5 0-3.2-2.4-4.9-6-4.9h-5.6v9.9H79ZM92.6 18.4a1.3 1.3 0 0 1 1.3-1.4 1.3 1.3 0 0 1 1.2 1.4v20.2A1.3 1.3 0 0 1 94 40a1.3 1.3 0 0 1-1.3-1.4V18.4ZM101.7 18.4a1.3 1.3 0 0 1 1.2-1.2h.4a1.5 1.5 0 0 1 1.3.7l13.6 17.4v-17a1.2 1.2 0 0 1 1.2-1.2 1.2 1.2 0 0 1 1.2 1.3v20.3a1.2 1.2 0 0 1-.3.8 1.1 1.1 0 0 1-.8.3h-.2a1.7 1.7 0 0 1-1.3-.8l-13.9-17.8v17.5a1.3 1.3 0 0 1-1.2 1.2 1.2 1.2 0 0 1-1.2-1.2V18.4ZM127 18.4a1.3 1.3 0 0 1 1.2-1.4 1.3 1.3 0 0 1 1.3 1.4v12.3l12.7-13.1c.3-.3.6-.5 1-.5a1.3 1.3 0 0 1 1.2 1.3 1.3 1.3 0 0 1-.4.9l-8 7.9 8.7 10.5c.2.2.3.6.3 1a1.3 1.3 0 0 1-.4.8 1.3 1.3 0 0 1-1 .4 1.2 1.2 0 0 1-1-.6L134.4 29l-4.8 4.8v4.9a1.3 1.3 0 0 1-.8 1.2 1.3 1.3 0 0 1-1.8-1.2V18.4Z"/><path fill="#D22856" fill-rule="evenodd" d="m53.9 6.6 5 21.1a1.4 1.4 0 0 1-.7 1.7l-.7.2h-4A11.6 11.6 0 0 1 42 39.9c-5.9 0-10.8-4.5-11.5-10.3h-2A11.8 11.8 0 0 1 17 40c-6 0-11-4.6-11.6-10.5h-4A1.4 1.4 0 0 1 .4 29a1.4 1.4 0 0 1-.2-1.3L5 6.6A8 8 0 0 1 13.5 0c.4 0 .7.2 1 .4a1.5 1.5 0 0 1 0 2.1c-.3.3-.6.5-1 .5C8.8 3 8 6.7 8 7L3.3 26.7h2C6.2 20.8 11 16.3 17 16.3c6 0 10.8 4.5 11.6 10.3h2c.7-5.7 5.6-10.2 11.4-10.2 6 0 10.8 4.5 11.5 10.2h2.1L51 7c0-.4-.8-4.1-5.5-4.1-.4 0-.7-.2-1-.5a1.5 1.5 0 0 1 0-2c.3-.3.6-.5 1-.5A8 8 0 0 1 54 6.6Zm-28.2 23a9.1 9.1 0 0 0 0-3 8.9 8.9 0 0 0-8.7-7.4 8.9 8.9 0 0 0-8.7 10.3 8.9 8.9 0 0 0 8.7 7.6c4.4 0 8-3.3 8.7-7.5Zm25 0V28c0-4.8-3.9-8.8-8.7-8.8a8.8 8.8 0 0 0-8.6 10.3A8.7 8.7 0 0 0 42 37c4.4 0 8-3.2 8.6-7.4Z" clip-rule="evenodd"/></svg>